# File created by Blade
# Date/Time:  Tue Jan 27 19:18:41 2015
# Frame Rate: 120.000 fps
#------------------------------------------------------
:FULLY-SPECIFIED
:DEGREES
2725
root 3.702331 32.278004 1.574039 -3.255642 4.614517 1.111589
Spine -1.173771 2.643971 1.357661
Head 14.592128 -19.867253 -13.744605
LeftShoulder -6.371701 -5.455540 22.639519
LeftArm -4.007978 38.598605 -100.100761
LeftForeArm 4.527947 -0.000000 17.434719
LeftHand 10.637553 -0.000000 -3.373467
LeftHandThumb1 -26.253704 0.000000 33.147579
RightShoulder -15.719577 4.340044 -42.700889
RightArm 105.256372 70.967548 147.712275
RightForeArm 24.807159 -0.000000 99.821439
RightHand 31.433261 -0.000000 -15.668415
RightHandThumb1 -24.326973 -0.000000 -32.862282
LeftUpLeg 10.375905 -1.830309 -0.615919
LeftLeg 2.174136 -0.000000 -0.000000
LeftFoot -17.207621 10.933350 -22.877758
LeftToeBase 17.021656 -0.000000 -0.000000
RightUpLeg 10.857953 -10.163392 0.906520
RightLeg -0.145925 -0.000000 0.000000
RightFoot -14.308319 -15.562341 14.522161
RightToeBase 10.028083 -0.000000 -0.000000
2726
root 3.696232 32.278117 1.570303 -3.247873 4.568331 1.098130
Spine -1.153614 2.635091 1.333251
Head 14.510202 -19.896850 -13.707932
LeftShoulder -6.355131 -5.473286 22.660889
LeftArm -4.045707 38.681917 -100.123879
LeftForeArm 4.660785 0.000000 17.477862
LeftHand 10.554874 -0.000000 -2.199595
LeftHandThumb1 -26.253704 0.000000 33.147579
RightShoulder -15.717666 4.309331 -42.684275
RightArm 105.111806 70.975489 147.582099
RightForeArm 24.704173 -0.000000 99.923756
RightHand 31.452175 -0.000000 -15.606448
RightHandThumb1 -24.326973 -0.000000 -32.862282
LeftUpLeg 10.367876 -1.818088 -0.596468
LeftLeg 2.187458 -0.000000 -0.000000
LeftFoot -17.218597 10.870492 -23.086479
LeftToeBase 16.684253 -0.000000 -0.000000
RightUpLeg 10.830733 -10.142376 0.930917
RightLeg -0.138531 -0.000000 0.000000
RightFoot -14.283283 -15.545342 14.493967
RightToeBase 10.079060 -0.000000 -0.000000
2727
root 3.689821 32.278323 1.565748 -3.239301 4.529280 1.088579
Spine -1.134412 2.619225 1.298553
Head 14.432941 -19.905400 -13.671309
LeftShoulder -6.329776 -5.484396 22.693107
LeftArm -4.065852 38.720978 -100.131999
LeftForeArm 4.774827 0.000000 17.522752
LeftHand 10.638026 -0.000000 -2.275751
LeftHandThumb1 -26.253704 0.000000 33.147579
RightShoulder -15.710800 4.296627 -42.666968
RightArm 104.934173 71.005702 147.428282
RightForeArm 24.481381 -0.000000 100.044811
RightHand 31.458028 -0.000000 -15.586845
RightHandThumb1 -24.326973 -0.000000 -32.862282
LeftUpLeg 10.351736 -1.777130 -0.571680
LeftLeg 2.182810 -0.000000 -0.000000
LeftFoot -17.236565 10.935429 -22.926831
LeftToeBase 17.030760 -0.000000 -0.000000
RightUpLeg 10.802670 -10.130241 0.950264
RightLeg -0.129066 -0.000000 0.000000
RightFoot -14.271441 -15.503725 14.509253
RightToeBase 10.031473 -0.000000 -0.000000
2728
root 3.684029 32.278556 1.561344 -3.227785 4.495757 1.077716
Spine -1.118496 2.590574 1.268653
Head 14.353897 -19.915557 -13.647085
LeftShoulder -6.312709 -5.482614 22.720090
LeftArm -4.072498 38.812729 -100.137784
LeftForeArm 4.686462 -0.000000 17.564825
LeftHand 10.767706 -0.000000 -2.862951
LeftHandThumb1 -26.253704 0.000000 33.147579
RightShoulder -15.686959 4.279341 -42.639390
RightArm 104.798191 71.034670 147.299513
RightForeArm 24.186572 -0.000000 100.169924
RightHand 31.368516 0.000000 -15.686860
RightHandThumb1 -24.326973 -0.000000 -32.862282
LeftUpLeg 10.327637 -1.766528 -0.555721
LeftLeg 2.212715 -0.000000 -0.000000
LeftFoot -17.252723 10.881796 -23.095213
LeftToeBase 16.739877 -0.000000 -0.000000
RightUpLeg 10.772438 -10.098138 0.976273
RightLeg -0.118931 -0.000000 0.000000
RightFoot -14.260132 -15.498913 14.488756
RightToeBase 10.077787 -0.000000 -0.000000
2729
root 3.677795 32.278325 1.557306 -3.223941 4.463858 1.067444
Spine -1.095507 2.571876 1.236864
Head 14.283189 -19.907990 -13.623275
LeftShoulder -6.278824 -5.523838 22.747256
LeftArm -4.131062 38.958679 -100.177775
LeftForeArm 4.654265 -0.000000 17.608683
LeftHand 10.737370 -0.000000 -2.895408
LeftHandThumb1 -26.253704 0.000000 33.147579
RightShoulder -15.654557 4.251111 -42.619944
RightArm 104.689494 71.091910 147.202497
RightForeArm 23.931912 0.000000 100.290571
RightHand 31.333277 -0.000000 -15.568235
RightHandThumb1 -24.326973 -0.000000 -32.862282
LeftUpLeg 10.315188 -1.740196 -0.534710
LeftLeg 2.222558 -0.000000 -0.000000
LeftFoot -17.263564 10.893368 -23.103507
LeftToeBase 16.718000 -0.000000 -0.000000
RightUpLeg 10.750388 -10.111464 0.991949
RightLeg -0.108231 -0.000000 0.000000
RightFoot -14.249541 -15.456683 14.486052
RightToeBase 10.096941 -0.000000 -0.000000
2730
root 3.674423 32.278336 1.553791 -3.221900 4.432856 1.067223
Spine -1.066486 2.548923 1.204264
Head 14.209287 -19.872344 -13.594581
LeftShoulder -6.266093 -5.574422 22.765087
LeftArm -4.192076 39.096429 -100.225607
LeftForeArm 4.714352 -0.000000 17.637471
LeftHand 10.578994 -0.000000 -2.783459
LeftHandThumb1 -26.253704 0.000000 33.147579
RightShoulder -15.629075 4.250150 -42.612077
RightArm 104.425942 71.193629 146.932597
RightForeArm 23.814728 0.000000 100.385661
RightHand 31.303581 -0.000000 -15.555223
RightHandThumb1 -24.326973 -0.000000 -32.862282
LeftUpLeg 10.305537 -1.570689 -0.497659
LeftLeg 2.213079 -0.000000 -0.000000
LeftFoot -17.210762 10.840111 -22.872383
LeftToeBase 16.995322 -0.000000 -0.000000
RightUpLeg 10.734017 -10.111969 0.994278
RightLeg -0.101859 -0.000000 0.000000
RightFoot -14.219919 -15.425883 14.443535
RightToeBase 9.997280 -0.000000 -0.000000
2731
root 3.669014 32.278972 1.548929 -3.216142 4.406551 1.065694
Spine -1.043190 2.534750 1.167362
Head 14.156325 -19.852490 -13.585551
LeftShoulder -6.248052 -5.576827 22.782653
LeftArm -4.168442 39.262761 -100.213809
LeftForeArm 4.563029 -0.000000 17.652719
LeftHand 10.646125 -0.000000 -3.864038
LeftHandThumb1 -26.253704 0.000000 33.147579
RightShoulder -15.651565 4.081482 -42.587192
RightArm 104.145750 71.136216 146.672589
RightForeArm 23.805740 0.000000 100.460145
RightHand 31.328583 -0.000000 -15.528716
RightHandThumb1 -24.326973 -0.000000 -32.862282
LeftUpLeg 10.284863 -1.531453 -0.484474
LeftLeg 2.236879 -0.000000 -0.000000
LeftFoot -17.193508 10.768879 -23.028314
LeftToeBase 16.751502 -0.000000 -0.000000
RightUpLeg 10.710065 -10.096017 1.006674
RightLeg -0.091401 -0.000000 0.000000
RightFoot -14.218173 -15.411521 14.444214
RightToeBase 10.087351 -0.000000 -0.000000
2732
root 3.660026 32.278855 1.544174 -3.205452 4.377934 1.042926
Spine -1.031216 2.521175 1.138574
Head 14.119594 -19.837030 -13.548785
LeftShoulder -6.256060 -5.488844 22.788242
LeftArm -4.018285 39.476866 -100.125021
LeftForeArm 4.760408 -0.000000 17.635314
LeftHand 10.530110 -0.000000 -3.096879
LeftHandThumb1 -26.253704 0.000000 33.147579
RightShoulder -15.651779 4.015678 -42.550233
RightArm 103.710439 71.191059 146.203617
RightForeArm 23.850106 -0.000000 100.506644
RightHand 31.318321 -0.000000 -15.559335
RightHandThumb1 -24.326973 -0.000000 -32.862282
LeftUpLeg 10.268499 -1.629099 -0.468918
LeftLeg 2.232451 -0.000000 -0.000000
LeftFoot -17.273380 10.947688 -22.912042
LeftToeBase 16.998884 -0.000000 -0.000000
RightUpLeg 10.684910 -10.038202 1.056065
RightLeg -0.096875 -0.000000 0.000000
RightFoot -14.208304 -15.432901 14.473783
RightToeBase 10.023295 -0.000000 -0.000000
2733
root 3.656921 32.279246 1.540818 -3.200613 4.353347 1.041063
Spine -1.011260 2.508763 1.107613
Head 14.080646 -19.799690 -13.528440
LeftShoulder -6.248765 -5.564213 22.803108
LeftArm -4.099807 39.575873 -100.182177
LeftForeArm 4.663229 -0.000000 17.645301
LeftHand 10.638620 0.000000 -3.943549
LeftHandThumb1 -26.253704 0.000000 33.147579
RightShoulder -15.644181 3.997695 -42.535009
RightArm 103.170935 71.315840 145.606436
RightForeArm 23.957689 0.000000 100.532751
RightHand 31.300905 -0.000000 -15.493920
RightHandThumb1 -24.326973 -0.000000 -32.862282
LeftUpLeg 10.253847 -1.513079 -0.442098
LeftLeg 2.242914 -0.000000 -0.000000
LeftFoot -17.235134 10.873373 -22.869863
LeftToeBase 17.054765 -0.000000 -0.000000
RightUpLeg 10.671628 -10.005546 1.066263
RightLeg -0.099431 -0.000000 0.000000
RightFoot -14.197124 -15.439019 14.462034
RightToeBase 10.064108 -0.000000 -0.000000
2734
root 3.652371 32.279507 1.537777 -3.197136 4.337712 1.033405
Spine -0.993303 2.487309 1.080351
Head 14.052358 -19.774960 -13.516047
LeftShoulder -6.255404 -5.575378 22.803800
LeftArm -4.091034 39.664552 -100.171826
LeftForeArm 4.613619 -0.000000 17.641334
LeftHand 10.727171 0.000000 -4.284555
LeftHandThumb1 -26.253704 0.000000 33.147579
RightShoulder -15.644279 3.966090 -42.520160
RightArm 102.554106 71.425445 144.927738
RightForeArm 24.025756 -0.000000 100.553409
RightHand 31.295980 -0.000000 -15.548388
RightHandThumb1 -24.326973 -0.000000 -32.862282
LeftUpLeg 10.244410 -1.507848 -0.428203
LeftLeg 2.245972 -0.000000 -0.000000
LeftFoot -17.244640 10.876795 -22.886015
LeftToeBase 17.043780 -0.000000 -0.000000
RightUpLeg 10.657317 -10.003269 1.081980
RightLeg -0.097396 -0.000000 0.000000
RightFoot -14.183737 -15.424119 14.442435
RightToeBase 10.069926 -0.000000 -0.000000
2735
root 3.647495 32.279643 1.534415 -3.187228 4.314838 1.021677
Spine -0.983373 2.470036 1.056676
Head 14.036399 -19.734782 -13.501324
LeftShoulder -6.271220 -5.562907 22.805209
LeftArm -4.049754 39.742439 -100.157192
LeftForeArm 4.634170 -0.000000 17.608537
LeftHand 10.757678 -0.000000 -4.308374
LeftHandThumb1 -26.253704 0.000000 33.147579
RightShoulder -15.625336 3.912380 -42.501331
RightArm 102.057960 71.538553 144.370879
RightForeArm 24.064318 -0.000000 100.568891
RightHand 31.319638 -0.000000 -15.470351
RightHandThumb1 -24.326973 -0.000000 -32.862282
LeftUpLeg 10.230319 -1.495457 -0.411534
LeftLeg 2.247232 -0.000000 -0.000000
LeftFoot -17.262642 10.897983 -22.883555
LeftToeBase 17.024990 -0.000000 -0.000000
RightUpLeg 10.635602 -9.982377 1.104546
RightLeg -0.094060 -0.000000 0.000000
RightFoot -14.176619 -15.415537 14.457235
RightToeBase 10.087902 -0.000000 -0.000000
